# xmcd CD database file
#
# Track frame offsets:
#	150
#	21810
#	35122
#	48858
#	68279
#	77938
#	99826
#	111314
#	127138
#	145028
#	163353
#	175183
#	195591
#	224040
#
# Disc length: 3218 seconds
#
# Revision: 0
# Processed by: cddbd v1.5.1PL0 Copyright (c) Steve Scherf et al.
# Submitted via: CDex 1.50
#
DISCID=c80c900e
DTITLE=Marc Breitfelder and Ryan Donohue - Take a Butcher's Knife
DYEAR=2003
DGENRE=Blues
TTITLE0=If youn want me to love you
TTITLE1=Tight like that
TTITLE2=Muscrat song
TTITLE3=Jack o'diamonds
TTITLE4=Good gravy
TTITLE5=Milwaukee Blues
TTITLE6=Icecream man
TTITLE7=My pencil won't write no more
TTITLE8=Louis Collins
TTITLE9=I can't get away
TTITLE10=Long gone
TTITLE11=In the jailhouse
TTITLE12=I'm in jail again
TTITLE13=Prisoner's song
EXTD=YEAR: 2003
EXTT0=
EXTT1=
EXTT2=
EXTT3=
EXTT4=
EXTT5=
EXTT6=
EXTT7=
EXTT8=
EXTT9=
EXTT10=
EXTT11=
EXTT12=
EXTT13=
PLAYORDER=
